<mxfile host="Electron" modified="2024-05-24T09:47:27.270Z" agent="Mozilla/5.0 (Windows NT 10.0; Win64; x64) AppleWebKit/537.36 (KHTML, like Gecko) draw.io/24.4.7 Chrome/124.0.6367.207 Electron/30.0.6 Safari/537.36" etag="sBBxrskIPovaU5N381q0" version="24.4.7" type="device">
  <diagram id="C5RBs43oDa-KdzZeNtuy" name="Page-1">
    <mxGraphModel dx="732" dy="477" grid="1" gridSize="10" guides="1" tooltips="1" connect="1" arrows="1" fold="1" page="1" pageScale="1" pageWidth="827" pageHeight="1169" math="0" shadow="0">
      <root>
        <mxCell id="WIyWlLk6GJQsqaUBKTNV-0" />
        <mxCell id="WIyWlLk6GJQsqaUBKTNV-1" parent="WIyWlLk6GJQsqaUBKTNV-0" />
        <mxCell id="GbkUftVM1VBQNMjq9O3H-27" value="" style="rounded=0;whiteSpace=wrap;html=1;strokeColor=#E07A5F;fontColor=#393C56;fillColor=none;dashed=1;" vertex="1" parent="WIyWlLk6GJQsqaUBKTNV-1">
          <mxGeometry x="414" y="195" width="360" height="495" as="geometry" />
        </mxCell>
        <mxCell id="GbkUftVM1VBQNMjq9O3H-7" value="" style="rounded=0;whiteSpace=wrap;html=1;strokeColor=#E07A5F;fontColor=#393C56;fillColor=none;dashed=1;" vertex="1" parent="WIyWlLk6GJQsqaUBKTNV-1">
          <mxGeometry x="20" y="195" width="360" height="470" as="geometry" />
        </mxCell>
        <mxCell id="WIyWlLk6GJQsqaUBKTNV-2" value="" style="rounded=0;html=1;jettySize=auto;orthogonalLoop=1;fontSize=11;endArrow=block;endFill=0;endSize=8;strokeWidth=1;shadow=0;labelBackgroundColor=none;edgeStyle=orthogonalEdgeStyle;strokeColor=#d79b00;fontColor=default;fillColor=#ffe6cc;entryX=0.5;entryY=0;entryDx=0;entryDy=0;" parent="WIyWlLk6GJQsqaUBKTNV-1" source="WIyWlLk6GJQsqaUBKTNV-3" target="WIyWlLk6GJQsqaUBKTNV-7" edge="1">
          <mxGeometry relative="1" as="geometry">
            <mxPoint x="117" y="380" as="targetPoint" />
          </mxGeometry>
        </mxCell>
        <mxCell id="WIyWlLk6GJQsqaUBKTNV-3" value="&lt;p style=&quot;line-height: 19px;&quot;&gt;&lt;font face=&quot;Verdana&quot; size=&quot;1&quot; color=&quot;#000000&quot; style=&quot;&quot;&gt;&lt;span style=&quot;white-space: pre; background-color: rgb(255, 230, 204);&quot;&gt;&lt;b style=&quot;font-size: 12px;&quot;&gt;originalArray = { &quot;Hello&quot;, &quot;2&quot;, &quot;world&quot;, &quot;:-)&quot; }&lt;/b&gt;&lt;/span&gt;&lt;/font&gt;&lt;/p&gt;" style="rounded=1;whiteSpace=wrap;html=1;fontSize=12;glass=0;strokeWidth=1;shadow=0;labelBackgroundColor=none;fillColor=#ffe6cc;strokeColor=#d79b00;" parent="WIyWlLk6GJQsqaUBKTNV-1" vertex="1">
          <mxGeometry x="95.5" y="130" width="353" height="40" as="geometry" />
        </mxCell>
        <mxCell id="WIyWlLk6GJQsqaUBKTNV-4" value="Yes" style="rounded=0;html=1;jettySize=auto;orthogonalLoop=1;fontSize=11;endArrow=block;endFill=0;endSize=8;strokeWidth=1;shadow=0;labelBackgroundColor=none;edgeStyle=orthogonalEdgeStyle;strokeColor=#d79b00;fontColor=default;fillColor=#ffe6cc;exitX=0.5;exitY=1;exitDx=0;exitDy=0;entryX=0.5;entryY=0;entryDx=0;entryDy=0;" parent="WIyWlLk6GJQsqaUBKTNV-1" source="WIyWlLk6GJQsqaUBKTNV-6" target="GbkUftVM1VBQNMjq9O3H-0" edge="1">
          <mxGeometry x="-0.6667" y="15" relative="1" as="geometry">
            <mxPoint as="offset" />
            <mxPoint x="427" y="650" as="targetPoint" />
          </mxGeometry>
        </mxCell>
        <mxCell id="WIyWlLk6GJQsqaUBKTNV-5" value="" style="edgeStyle=orthogonalEdgeStyle;rounded=0;html=1;jettySize=auto;orthogonalLoop=1;fontSize=11;endArrow=block;endFill=0;endSize=8;strokeWidth=1;shadow=0;labelBackgroundColor=none;strokeColor=#d79b00;fontColor=default;fillColor=#ffe6cc;entryX=0.5;entryY=0;entryDx=0;entryDy=0;exitX=0.5;exitY=1;exitDx=0;exitDy=0;" parent="WIyWlLk6GJQsqaUBKTNV-1" source="WIyWlLk6GJQsqaUBKTNV-7" target="WIyWlLk6GJQsqaUBKTNV-6" edge="1">
          <mxGeometry y="10" relative="1" as="geometry">
            <mxPoint as="offset" />
            <mxPoint x="577" y="350" as="sourcePoint" />
          </mxGeometry>
        </mxCell>
        <mxCell id="WIyWlLk6GJQsqaUBKTNV-6" value="&lt;b&gt;&lt;font face=&quot;Verdana&quot;&gt;foreach&lt;br&gt;s in originalArray&lt;/font&gt;&lt;/b&gt;" style="rhombus;whiteSpace=wrap;html=1;shadow=0;fontFamily=Helvetica;fontSize=12;align=center;strokeWidth=1;spacing=6;spacingTop=-4;labelBackgroundColor=none;fillColor=#ffe6cc;strokeColor=#d79b00;" parent="WIyWlLk6GJQsqaUBKTNV-1" vertex="1">
          <mxGeometry x="167" y="290" width="210" height="80" as="geometry" />
        </mxCell>
        <mxCell id="WIyWlLk6GJQsqaUBKTNV-7" value="&lt;font face=&quot;Verdana&quot;&gt;&lt;b&gt;newSize = 0&lt;/b&gt;&lt;/font&gt;" style="rounded=1;whiteSpace=wrap;html=1;fontSize=12;glass=0;strokeWidth=1;shadow=0;labelBackgroundColor=none;fillColor=#ffe6cc;strokeColor=#d79b00;" parent="WIyWlLk6GJQsqaUBKTNV-1" vertex="1">
          <mxGeometry x="212" y="210" width="120" height="40" as="geometry" />
        </mxCell>
        <mxCell id="WIyWlLk6GJQsqaUBKTNV-11" value="&lt;div&gt;&lt;font face=&quot;Verdana&quot;&gt;&lt;b&gt;newSize++&lt;/b&gt;&lt;/font&gt;&lt;br&gt;&lt;/div&gt;" style="rounded=1;whiteSpace=wrap;html=1;fontSize=12;glass=0;strokeWidth=1;shadow=0;labelBackgroundColor=none;fillColor=#ffe6cc;strokeColor=#d79b00;align=left;" parent="WIyWlLk6GJQsqaUBKTNV-1" vertex="1">
          <mxGeometry x="217" y="610" width="110" height="40" as="geometry" />
        </mxCell>
        <mxCell id="GbkUftVM1VBQNMjq9O3H-0" value="&lt;b&gt;&lt;font face=&quot;Verdana&quot;&gt;s.Length &amp;lt;= 3&lt;/font&gt;&lt;/b&gt;" style="rhombus;whiteSpace=wrap;html=1;shadow=0;fontFamily=Helvetica;fontSize=12;align=center;strokeWidth=1;spacing=6;spacingTop=-4;labelBackgroundColor=none;fillColor=#ffe6cc;strokeColor=#d79b00;" vertex="1" parent="WIyWlLk6GJQsqaUBKTNV-1">
          <mxGeometry x="193" y="445" width="158" height="50" as="geometry" />
        </mxCell>
        <mxCell id="GbkUftVM1VBQNMjq9O3H-2" value="Yes" style="rounded=0;html=1;jettySize=auto;orthogonalLoop=1;fontSize=11;endArrow=block;endFill=0;endSize=8;strokeWidth=1;shadow=0;labelBackgroundColor=none;edgeStyle=orthogonalEdgeStyle;strokeColor=#d79b00;fontColor=default;fillColor=#ffe6cc;entryX=0.5;entryY=0;entryDx=0;entryDy=0;exitX=0.5;exitY=1;exitDx=0;exitDy=0;" edge="1" parent="WIyWlLk6GJQsqaUBKTNV-1" source="GbkUftVM1VBQNMjq9O3H-0" target="WIyWlLk6GJQsqaUBKTNV-11">
          <mxGeometry x="-0.75" y="15" relative="1" as="geometry">
            <mxPoint x="417" y="650" as="sourcePoint" />
            <mxPoint x="527" y="680" as="targetPoint" />
            <mxPoint as="offset" />
          </mxGeometry>
        </mxCell>
        <mxCell id="GbkUftVM1VBQNMjq9O3H-3" value="" style="rounded=0;html=1;jettySize=auto;orthogonalLoop=1;fontSize=11;endArrow=block;endFill=0;endSize=8;strokeWidth=1;shadow=0;labelBackgroundColor=none;edgeStyle=orthogonalEdgeStyle;strokeColor=#d79b00;fontColor=default;fillColor=#ffe6cc;entryX=0;entryY=0.5;entryDx=0;entryDy=0;exitX=0;exitY=0.5;exitDx=0;exitDy=0;" edge="1" parent="WIyWlLk6GJQsqaUBKTNV-1" source="WIyWlLk6GJQsqaUBKTNV-11" target="WIyWlLk6GJQsqaUBKTNV-6">
          <mxGeometry relative="1" as="geometry">
            <mxPoint x="282" y="540" as="sourcePoint" />
            <mxPoint x="282" y="620" as="targetPoint" />
            <Array as="points">
              <mxPoint x="97" y="630" />
              <mxPoint x="97" y="330" />
            </Array>
          </mxGeometry>
        </mxCell>
        <mxCell id="GbkUftVM1VBQNMjq9O3H-5" value="No" style="rounded=0;html=1;jettySize=auto;orthogonalLoop=1;fontSize=11;endArrow=block;endFill=0;endSize=8;strokeWidth=1;shadow=0;labelBackgroundColor=none;edgeStyle=orthogonalEdgeStyle;strokeColor=#d79b00;fontColor=default;fillColor=#ffe6cc;exitX=0;exitY=0.5;exitDx=0;exitDy=0;" edge="1" parent="WIyWlLk6GJQsqaUBKTNV-1" source="GbkUftVM1VBQNMjq9O3H-0">
          <mxGeometry x="-0.7219" y="10" relative="1" as="geometry">
            <mxPoint x="282" y="380" as="sourcePoint" />
            <mxPoint x="100" y="470" as="targetPoint" />
            <mxPoint as="offset" />
          </mxGeometry>
        </mxCell>
        <mxCell id="GbkUftVM1VBQNMjq9O3H-6" value="&lt;div&gt;&lt;b&gt;&lt;font face=&quot;Verdana&quot;&gt;newArray[index] = s&lt;/font&gt;&lt;/b&gt;&lt;/div&gt;&lt;div&gt;&lt;font style=&quot;&quot; face=&quot;Verdana&quot;&gt;&lt;b&gt;index++&lt;/b&gt;&lt;br&gt;&lt;/font&gt;&lt;/div&gt;" style="rounded=1;whiteSpace=wrap;html=1;fontSize=12;glass=0;strokeWidth=1;shadow=0;labelBackgroundColor=none;fillColor=#ffe6cc;strokeColor=#d79b00;align=left;" vertex="1" parent="WIyWlLk6GJQsqaUBKTNV-1">
          <mxGeometry x="455" y="630" width="170" height="40" as="geometry" />
        </mxCell>
        <mxCell id="GbkUftVM1VBQNMjq9O3H-8" value="&lt;div style=&quot;text-align: left;&quot;&gt;&lt;span style=&quot;background-color: initial;&quot;&gt;Этот блок кода проходит по каждой строке в originalArray&amp;nbsp;и увеличивает newSize на 1, если длина строки меньше или равна 3&lt;/span&gt;&lt;/div&gt;" style="text;html=1;align=center;verticalAlign=middle;whiteSpace=wrap;rounded=0;fontColor=#393C56;" vertex="1" parent="WIyWlLk6GJQsqaUBKTNV-1">
          <mxGeometry x="30" y="180" width="177" height="150" as="geometry" />
        </mxCell>
        <mxCell id="GbkUftVM1VBQNMjq9O3H-9" value="&lt;div&gt;&lt;font face=&quot;Verdana&quot;&gt;&lt;b&gt;newArray = [newSize]&lt;/b&gt;&lt;/font&gt;&lt;br&gt;&lt;/div&gt;&lt;div&gt;&lt;font face=&quot;Verdana&quot;&gt;&lt;b&gt;index = 0&lt;/b&gt;&lt;br&gt;&lt;/font&gt;&lt;/div&gt;" style="rounded=1;whiteSpace=wrap;html=1;fontSize=12;glass=0;strokeWidth=1;shadow=0;labelBackgroundColor=none;fillColor=#ffe6cc;strokeColor=#d79b00;align=left;" vertex="1" parent="WIyWlLk6GJQsqaUBKTNV-1">
          <mxGeometry x="460" y="310" width="160" height="40" as="geometry" />
        </mxCell>
        <mxCell id="GbkUftVM1VBQNMjq9O3H-10" value="&lt;b&gt;&lt;font face=&quot;Verdana&quot;&gt;foreach&lt;br&gt;s in originalArray&lt;/font&gt;&lt;/b&gt;" style="rhombus;whiteSpace=wrap;html=1;shadow=0;fontFamily=Helvetica;fontSize=12;align=center;strokeWidth=1;spacing=6;spacingTop=-4;labelBackgroundColor=none;fillColor=#ffe6cc;strokeColor=#d79b00;" vertex="1" parent="WIyWlLk6GJQsqaUBKTNV-1">
          <mxGeometry x="435" y="390" width="210" height="80" as="geometry" />
        </mxCell>
        <mxCell id="GbkUftVM1VBQNMjq9O3H-11" value="No" style="rounded=0;html=1;jettySize=auto;orthogonalLoop=1;fontSize=11;endArrow=block;endFill=0;endSize=8;strokeWidth=1;shadow=0;labelBackgroundColor=none;edgeStyle=orthogonalEdgeStyle;strokeColor=#d79b00;fontColor=default;fillColor=#ffe6cc;exitX=1;exitY=0.5;exitDx=0;exitDy=0;entryX=0;entryY=0.5;entryDx=0;entryDy=0;" edge="1" parent="WIyWlLk6GJQsqaUBKTNV-1" source="WIyWlLk6GJQsqaUBKTNV-6" target="GbkUftVM1VBQNMjq9O3H-9">
          <mxGeometry x="-0.7403" y="-10" relative="1" as="geometry">
            <mxPoint x="570" y="770" as="sourcePoint" />
            <mxPoint x="80" y="780" as="targetPoint" />
            <mxPoint as="offset" />
          </mxGeometry>
        </mxCell>
        <mxCell id="GbkUftVM1VBQNMjq9O3H-12" value="&lt;b&gt;foreach (string s in newArray)&lt;/b&gt;&lt;div&gt;&lt;b&gt;Console.WriteLine(s)&lt;/b&gt;&lt;br&gt;&lt;/div&gt;" style="shape=document;whiteSpace=wrap;html=1;boundedLbl=1;strokeColor=#d79b00;fillColor=#ffe6cc;" vertex="1" parent="WIyWlLk6GJQsqaUBKTNV-1">
          <mxGeometry x="619" y="750" width="175" height="80" as="geometry" />
        </mxCell>
        <mxCell id="GbkUftVM1VBQNMjq9O3H-13" value="" style="edgeStyle=orthogonalEdgeStyle;rounded=0;html=1;jettySize=auto;orthogonalLoop=1;fontSize=11;endArrow=block;endFill=0;endSize=8;strokeWidth=1;shadow=0;labelBackgroundColor=none;strokeColor=#d79b00;fontColor=default;fillColor=#ffe6cc;entryX=0.5;entryY=0;entryDx=0;entryDy=0;exitX=0.5;exitY=1;exitDx=0;exitDy=0;" edge="1" parent="WIyWlLk6GJQsqaUBKTNV-1" source="GbkUftVM1VBQNMjq9O3H-9" target="GbkUftVM1VBQNMjq9O3H-10">
          <mxGeometry y="10" relative="1" as="geometry">
            <mxPoint as="offset" />
            <mxPoint x="490" y="360" as="sourcePoint" />
            <mxPoint x="490" y="400" as="targetPoint" />
          </mxGeometry>
        </mxCell>
        <mxCell id="GbkUftVM1VBQNMjq9O3H-15" value="Yes" style="rounded=0;html=1;jettySize=auto;orthogonalLoop=1;fontSize=11;endArrow=block;endFill=0;endSize=8;strokeWidth=1;shadow=0;labelBackgroundColor=none;edgeStyle=orthogonalEdgeStyle;strokeColor=#d79b00;fontColor=default;fillColor=#ffe6cc;exitX=0.5;exitY=1;exitDx=0;exitDy=0;entryX=0.5;entryY=0;entryDx=0;entryDy=0;" edge="1" parent="WIyWlLk6GJQsqaUBKTNV-1" source="GbkUftVM1VBQNMjq9O3H-10" target="GbkUftVM1VBQNMjq9O3H-16">
          <mxGeometry x="-0.75" y="15" relative="1" as="geometry">
            <mxPoint x="182" y="540" as="sourcePoint" />
            <mxPoint x="580" y="580" as="targetPoint" />
            <mxPoint as="offset" />
          </mxGeometry>
        </mxCell>
        <mxCell id="GbkUftVM1VBQNMjq9O3H-16" value="&lt;b&gt;&lt;font face=&quot;Verdana&quot;&gt;s.Length &amp;lt;= 3&lt;/font&gt;&lt;/b&gt;" style="rhombus;whiteSpace=wrap;html=1;shadow=0;fontFamily=Helvetica;fontSize=12;align=center;strokeWidth=1;spacing=6;spacingTop=-4;labelBackgroundColor=none;fillColor=#ffe6cc;strokeColor=#d79b00;" vertex="1" parent="WIyWlLk6GJQsqaUBKTNV-1">
          <mxGeometry x="461" y="510" width="158" height="50" as="geometry" />
        </mxCell>
        <mxCell id="GbkUftVM1VBQNMjq9O3H-18" value="" style="rounded=0;html=1;jettySize=auto;orthogonalLoop=1;fontSize=11;endArrow=block;endFill=0;endSize=8;strokeWidth=1;shadow=0;labelBackgroundColor=none;edgeStyle=orthogonalEdgeStyle;strokeColor=#d79b00;fontColor=default;fillColor=#ffe6cc;entryX=0;entryY=0.5;entryDx=0;entryDy=0;exitX=0;exitY=0.5;exitDx=0;exitDy=0;" edge="1" parent="WIyWlLk6GJQsqaUBKTNV-1" source="GbkUftVM1VBQNMjq9O3H-6" target="GbkUftVM1VBQNMjq9O3H-10">
          <mxGeometry relative="1" as="geometry">
            <mxPoint x="127" y="640" as="sourcePoint" />
            <mxPoint x="77" y="340" as="targetPoint" />
            <Array as="points">
              <mxPoint x="390" y="650" />
              <mxPoint x="390" y="430" />
            </Array>
          </mxGeometry>
        </mxCell>
        <mxCell id="GbkUftVM1VBQNMjq9O3H-19" value="No" style="rounded=0;html=1;jettySize=auto;orthogonalLoop=1;fontSize=11;endArrow=block;endFill=0;endSize=8;strokeWidth=1;shadow=0;labelBackgroundColor=none;edgeStyle=orthogonalEdgeStyle;strokeColor=#d79b00;fontColor=default;fillColor=#ffe6cc;exitX=1;exitY=0.5;exitDx=0;exitDy=0;entryX=0.5;entryY=0;entryDx=0;entryDy=0;" edge="1" parent="WIyWlLk6GJQsqaUBKTNV-1" source="GbkUftVM1VBQNMjq9O3H-10" target="GbkUftVM1VBQNMjq9O3H-12">
          <mxGeometry x="-0.921" y="-10" relative="1" as="geometry">
            <mxPoint x="287" y="340" as="sourcePoint" />
            <mxPoint x="650" y="730" as="targetPoint" />
            <mxPoint as="offset" />
          </mxGeometry>
        </mxCell>
        <mxCell id="GbkUftVM1VBQNMjq9O3H-20" value="Yes" style="rounded=0;html=1;jettySize=auto;orthogonalLoop=1;fontSize=11;endArrow=block;endFill=0;endSize=8;strokeWidth=1;shadow=0;labelBackgroundColor=none;edgeStyle=orthogonalEdgeStyle;strokeColor=#d79b00;fontColor=default;fillColor=#ffe6cc;entryX=0.5;entryY=0;entryDx=0;entryDy=0;exitX=0.5;exitY=1;exitDx=0;exitDy=0;" edge="1" parent="WIyWlLk6GJQsqaUBKTNV-1" source="GbkUftVM1VBQNMjq9O3H-16" target="GbkUftVM1VBQNMjq9O3H-6">
          <mxGeometry x="-0.75" y="15" relative="1" as="geometry">
            <mxPoint x="539.88" y="580" as="sourcePoint" />
            <mxPoint x="539.63" y="620" as="targetPoint" />
            <mxPoint as="offset" />
          </mxGeometry>
        </mxCell>
        <mxCell id="GbkUftVM1VBQNMjq9O3H-21" value="No" style="rounded=0;html=1;jettySize=auto;orthogonalLoop=1;fontSize=11;endArrow=block;endFill=0;endSize=8;strokeWidth=1;shadow=0;labelBackgroundColor=none;edgeStyle=orthogonalEdgeStyle;strokeColor=#d79b00;fontColor=default;fillColor=#ffe6cc;exitX=0;exitY=0.5;exitDx=0;exitDy=0;" edge="1" parent="WIyWlLk6GJQsqaUBKTNV-1" source="GbkUftVM1VBQNMjq9O3H-16">
          <mxGeometry x="-0.7219" y="10" relative="1" as="geometry">
            <mxPoint x="103" y="480" as="sourcePoint" />
            <mxPoint x="390" y="535" as="targetPoint" />
            <mxPoint as="offset" />
          </mxGeometry>
        </mxCell>
        <mxCell id="GbkUftVM1VBQNMjq9O3H-22" value="START" style="ellipse;whiteSpace=wrap;html=1;strokeColor=#d79b00;fillColor=#ffe6cc;" vertex="1" parent="WIyWlLk6GJQsqaUBKTNV-1">
          <mxGeometry x="212" y="20" width="120" height="50" as="geometry" />
        </mxCell>
        <mxCell id="GbkUftVM1VBQNMjq9O3H-24" value="FINISH" style="ellipse;whiteSpace=wrap;html=1;strokeColor=#d79b00;fillColor=#ffe6cc;" vertex="1" parent="WIyWlLk6GJQsqaUBKTNV-1">
          <mxGeometry x="315" y="765" width="120" height="50" as="geometry" />
        </mxCell>
        <mxCell id="GbkUftVM1VBQNMjq9O3H-25" value="" style="rounded=0;html=1;jettySize=auto;orthogonalLoop=1;fontSize=11;endArrow=block;endFill=0;endSize=8;strokeWidth=1;shadow=0;labelBackgroundColor=none;edgeStyle=orthogonalEdgeStyle;strokeColor=#d79b00;fontColor=default;fillColor=#ffe6cc;entryX=1;entryY=0.5;entryDx=0;entryDy=0;exitX=0;exitY=0.5;exitDx=0;exitDy=0;" edge="1" parent="WIyWlLk6GJQsqaUBKTNV-1" source="GbkUftVM1VBQNMjq9O3H-12" target="GbkUftVM1VBQNMjq9O3H-24">
          <mxGeometry relative="1" as="geometry">
            <mxPoint x="470" y="770" as="sourcePoint" />
            <mxPoint x="470" y="810" as="targetPoint" />
          </mxGeometry>
        </mxCell>
        <mxCell id="GbkUftVM1VBQNMjq9O3H-26" value="&lt;div style=&quot;text-align: left;&quot;&gt;&lt;div&gt;Этот блок кода снова проходит по каждой строке в originalArray и,&lt;span style=&quot;background-color: initial;&quot;&gt;&amp;nbsp;если длина строки меньше или равна 3, добавляет ее в newArray и увеличивает index на 1&lt;/span&gt;&lt;/div&gt;&lt;/div&gt;" style="text;html=1;align=center;verticalAlign=middle;whiteSpace=wrap;rounded=0;fontColor=#393C56;" vertex="1" parent="WIyWlLk6GJQsqaUBKTNV-1">
          <mxGeometry x="430" y="220" width="320" height="70" as="geometry" />
        </mxCell>
        <mxCell id="GbkUftVM1VBQNMjq9O3H-28" value="" style="rounded=0;whiteSpace=wrap;html=1;strokeColor=#E07A5F;fontColor=#393C56;fillColor=none;dashed=1;" vertex="1" parent="WIyWlLk6GJQsqaUBKTNV-1">
          <mxGeometry x="560" y="730" width="257" height="200" as="geometry" />
        </mxCell>
        <mxCell id="GbkUftVM1VBQNMjq9O3H-29" value="&lt;div style=&quot;text-align: left;&quot;&gt;этот блок кода выводит каждую строку в newArray в консоль.&lt;/div&gt;&lt;div style=&quot;text-align: left;&quot;&gt;(не стал оформлять в блок-схему цикла)&lt;br&gt;&lt;/div&gt;" style="text;html=1;align=center;verticalAlign=middle;whiteSpace=wrap;rounded=0;fontColor=#393C56;" vertex="1" parent="WIyWlLk6GJQsqaUBKTNV-1">
          <mxGeometry x="580" y="850" width="210" height="70" as="geometry" />
        </mxCell>
        <mxCell id="GbkUftVM1VBQNMjq9O3H-30" value="" style="rounded=0;html=1;jettySize=auto;orthogonalLoop=1;fontSize=11;endArrow=block;endFill=0;endSize=8;strokeWidth=1;shadow=0;labelBackgroundColor=none;edgeStyle=orthogonalEdgeStyle;strokeColor=#d79b00;fontColor=default;fillColor=#ffe6cc;entryX=0.5;entryY=0;entryDx=0;entryDy=0;exitX=0.5;exitY=1;exitDx=0;exitDy=0;" edge="1" parent="WIyWlLk6GJQsqaUBKTNV-1" source="GbkUftVM1VBQNMjq9O3H-22" target="WIyWlLk6GJQsqaUBKTNV-3">
          <mxGeometry relative="1" as="geometry">
            <mxPoint x="282" y="180" as="sourcePoint" />
            <mxPoint x="282" y="220" as="targetPoint" />
          </mxGeometry>
        </mxCell>
      </root>
    </mxGraphModel>
  </diagram>
</mxfile>
